<svg xmlns="http://www.w3.org/2000/svg" class="railroad" width="392" height="828" viewBox="0 0 392 828"><style>svg.railroad{background:#fff;font-family:monospace;font-size:13px}.rr-line{stroke:#334;stroke-width:2;fill:none}.rr-cap{fill:#334}.rr-term{fill:#e8f0ff;stroke:#334;stroke-width:2}.rr-nonterm{fill:#fff7e8;stroke:#334;stroke-width:2}.rr-label{fill:#111;text-anchor:middle;dominant-baseline:middle}.rr-comment{fill:#666;font-style:italic;text-anchor:middle;dominant-baseline:middle}.rr-title{fill:#113;font-weight:bold;font-size:15px}.rr-legend{fill:#333;font-size:12px}.rr-legend-tok{fill:#113;font-weight:bold}a:hover .rr-nonterm{fill:#ffe6b3;cursor:pointer}</style><g><g id="val"><text class="rr-title" x="16" y="31">val</text><circle class="rr-cap" cx="112" cy="42" r="3"/><path class="rr-line" d="M112 42V56"/><path class="rr-line" d="M112 56V74"/><path class="rr-line" d="M38 74H186"/><path class="rr-line" d="M38 136H186"/><path class="rr-line" d="M112 136V154"/><path class="rr-line" d="M38 74V92"/><a href="#map"><rect class="rr-nonterm" x="16" y="92" width="44" height="26" rx="4" ry="4"/><text class="rr-label" x="38" y="105">map</text></a><path class="rr-line" d="M38 118V136"/><path class="rr-line" d="M112 74V92"/><a href="#list"><rect class="rr-nonterm" x="86" y="92" width="52" height="26" rx="4" ry="4"/><text class="rr-label" x="112" y="105">list</text></a><path class="rr-line" d="M112 118V136"/><path class="rr-line" d="M186 74V92"/><rect class="rr-term" x="164" y="92" width="44" height="26" rx="13" ry="13"/><text class="rr-label" x="186" y="105">VAL</text><path class="rr-line" d="M186 118V136"/><path class="rr-line" d="M112 154V168"/><circle class="rr-cap" cx="112" cy="168" r="3"/></g><g id="map"><text class="rr-title" x="16" y="217">map</text><circle class="rr-cap" cx="64" cy="228" r="3"/><path class="rr-line" d="M64 228V242"/><rect class="rr-term" x="49" y="242" width="30" height="26" rx="13" ry="13"/><text class="rr-label" x="64" y="255">{</text><path class="rr-line" d="M64 268V286"/><path class="rr-line" d="M64 286V304"/><path class="rr-line" d="M42 304H86"/><path class="rr-line" d="M42 366H86"/><path class="rr-line" d="M64 366V384"/><path class="rr-line" d="M42 304V322"/><a href="#pair"><rect class="rr-nonterm" x="16" y="322" width="52" height="26" rx="4" ry="4"/><text class="rr-label" x="42" y="335">pair</text></a><path class="rr-line" d="M42 348V366"/><path class="rr-line" d="M86 304V322"/><path class="rr-line" d="M86 322V334"/><path class="rr-line" d="M86 334V366"/><path class="rr-line" d="M64 384V402"/><rect class="rr-term" x="49" y="402" width="30" height="26" rx="13" ry="13"/><text class="rr-label" x="64" y="415">}</text><path class="rr-line" d="M64 428V442"/><circle class="rr-cap" cx="64" cy="442" r="3"/></g><g id="list"><text class="rr-title" x="16" y="491">list</text><circle class="rr-cap" cx="64" cy="502" r="3"/><path class="rr-line" d="M64 502V516"/><rect class="rr-term" x="49" y="516" width="30" height="26" rx="13" ry="13"/><text class="rr-label" x="64" y="529">[</text><path class="rr-line" d="M64 542V560"/><path class="rr-line" d="M64 560V578"/><path class="rr-line" d="M42 578H86"/><path class="rr-line" d="M42 640H86"/><path class="rr-line" d="M64 640V658"/><path class="rr-line" d="M42 578V596"/><a href="#elem"><rect class="rr-nonterm" x="16" y="596" width="52" height="26" rx="4" ry="4"/><text class="rr-label" x="42" y="609">elem</text></a><path class="rr-line" d="M42 622V640"/><path class="rr-line" d="M86 578V596"/><path class="rr-line" d="M86 596V608"/><path class="rr-line" d="M86 608V640"/><path class="rr-line" d="M64 658V676"/><rect class="rr-term" x="49" y="676" width="30" height="26" rx="13" ry="13"/><text class="rr-label" x="64" y="689">]</text><path class="rr-line" d="M64 702V716"/><circle class="rr-cap" cx="64" cy="716" r="3"/></g><g id="pair"><text class="rr-title" x="256" y="31">pair</text><circle class="rr-cap" cx="278" cy="42" r="3"/><path class="rr-line" d="M278 42V56"/><path class="rr-line" d="M278 56V74"/><rect class="rr-term" x="256" y="74" width="44" height="26" rx="13" ry="13"/><text class="rr-label" x="278" y="87">KEY</text><path class="rr-line" d="M278 100V118"/><rect class="rr-term" x="263" y="118" width="30" height="26" rx="13" ry="13"/><text class="rr-label" x="278" y="131">:</text><path class="rr-line" d="M278 144V162"/><a href="#val"><rect class="rr-nonterm" x="256" y="162" width="44" height="26" rx="4" ry="4"/><text class="rr-label" x="278" y="175">val</text></a><path class="rr-line" d="M278 188V206"/><path class="rr-line" d="M278 197H325"/><path class="rr-line" d="M278 65H325"/><path class="rr-line" d="M325 144V197"/><path class="rr-line" d="M325 65V118"/><rect class="rr-term" x="310" y="118" width="30" height="26" rx="13" ry="13"/><text class="rr-label" x="325" y="131">,</text><path class="rr-line" d="M278 206V220"/><circle class="rr-cap" cx="278" cy="220" r="3"/></g><g id="elem"><text class="rr-title" x="256" y="269">elem</text><circle class="rr-cap" cx="278" cy="280" r="3"/><path class="rr-line" d="M278 280V294"/><path class="rr-line" d="M278 294V312"/><a href="#val"><rect class="rr-nonterm" x="256" y="312" width="44" height="26" rx="4" ry="4"/><text class="rr-label" x="278" y="325">val</text></a><path class="rr-line" d="M278 338V356"/><path class="rr-line" d="M278 347H325"/><path class="rr-line" d="M278 303H325"/><path class="rr-line" d="M325 338V347"/><path class="rr-line" d="M325 303V312"/><rect class="rr-term" x="310" y="312" width="30" height="26" rx="13" ry="13"/><text class="rr-label" x="325" y="325">,</text><path class="rr-line" d="M278 356V370"/><circle class="rr-cap" cx="278" cy="370" r="3"/></g><text class="rr-title" x="16" y="765">Tokens</text><text class="rr-legend" x="16" y="787"><tspan class="rr-legend-tok">KEY</tspan>  —  map key (text, number, string, or value)</text><text class="rr-legend" x="16" y="805"><tspan class="rr-legend-tok">VAL</tspan>  —  a value (text, number, string, or value)</text></g></svg>