<svg xmlns="http://www.w3.org/2000/svg" class="railroad" width="224" height="872" viewBox="0 0 224 872"><style>svg.railroad{background:#fff;font-family:monospace;font-size:13px}.rr-line{stroke:#334;stroke-width:2;fill:none}.rr-cap{fill:#334}.rr-term{fill:#e8f0ff;stroke:#334;stroke-width:2}.rr-nonterm{fill:#fff7e8;stroke:#334;stroke-width:2}.rr-label{fill:#111;text-anchor:middle;dominant-baseline:middle}.rr-comment{fill:#666;font-style:italic;text-anchor:middle;dominant-baseline:middle}.rr-title{fill:#113;font-weight:bold;font-size:15px}a:hover .rr-nonterm{fill:#ffe6b3;cursor:pointer}</style><g><g id="val"><text class="rr-title" x="16" y="31">val</text><circle class="rr-cap" cx="112" cy="42" r="3"/><path class="rr-line" d="M112 42V60"/><path class="rr-line" d="M112 86V104"/><path class="rr-line" d="M38 60H186"/><path class="rr-line" d="M38 86H186"/><a href="#map"><rect class="rr-nonterm" x="16" y="60" width="44" height="26" rx="4" ry="4"/><text class="rr-label" x="38" y="73">map</text></a><a href="#list"><rect class="rr-nonterm" x="86" y="60" width="52" height="26" rx="4" ry="4"/><text class="rr-label" x="112" y="73">list</text></a><rect class="rr-term" x="164" y="60" width="44" height="26" rx="13" ry="13"/><text class="rr-label" x="186" y="73">VAL</text><circle class="rr-cap" cx="112" cy="104" r="3"/></g><g id="map"><text class="rr-title" x="16" y="153">map</text><circle class="rr-cap" cx="67" cy="164" r="3"/><rect class="rr-term" x="52" y="164" width="30" height="26" rx="13" ry="13"/><text class="rr-label" x="67" y="177">{</text><path class="rr-line" d="M67 172V190"/><path class="rr-line" d="M67 190V208"/><path class="rr-line" d="M67 234V252"/><path class="rr-line" d="M42 208H106"/><path class="rr-line" d="M42 234H106"/><a href="#pair"><rect class="rr-nonterm" x="16" y="208" width="52" height="26" rx="4" ry="4"/><text class="rr-label" x="42" y="221">pair</text></a><path class="rr-line" d="M106 208V220"/><path class="rr-line" d="M106 220V234"/><path class="rr-line" d="M67 234V252"/><rect class="rr-term" x="52" y="252" width="30" height="26" rx="13" ry="13"/><text class="rr-label" x="67" y="265">}</text><circle class="rr-cap" cx="67" cy="314" r="3"/></g><g id="list"><text class="rr-title" x="16" y="363">list</text><circle class="rr-cap" cx="67" cy="374" r="3"/><rect class="rr-term" x="52" y="374" width="30" height="26" rx="13" ry="13"/><text class="rr-label" x="67" y="387">[</text><path class="rr-line" d="M67 382V400"/><path class="rr-line" d="M67 400V418"/><path class="rr-line" d="M67 444V462"/><path class="rr-line" d="M42 418H106"/><path class="rr-line" d="M42 444H106"/><a href="#elem"><rect class="rr-nonterm" x="16" y="418" width="52" height="26" rx="4" ry="4"/><text class="rr-label" x="42" y="431">elem</text></a><path class="rr-line" d="M106 418V430"/><path class="rr-line" d="M106 430V444"/><path class="rr-line" d="M67 444V462"/><rect class="rr-term" x="52" y="462" width="30" height="26" rx="13" ry="13"/><text class="rr-label" x="67" y="475">]</text><circle class="rr-cap" cx="67" cy="524" r="3"/></g><g id="pair"><text class="rr-title" x="16" y="573">pair</text><circle class="rr-cap" cx="38" cy="584" r="3"/><path class="rr-line" d="M38 584V602"/><rect class="rr-term" x="16" y="602" width="44" height="26" rx="13" ry="13"/><text class="rr-label" x="38" y="615">KEY</text><path class="rr-line" d="M38 610V628"/><rect class="rr-term" x="23" y="628" width="30" height="26" rx="13" ry="13"/><text class="rr-label" x="38" y="641">:</text><path class="rr-line" d="M38 636V654"/><a href="#val"><rect class="rr-nonterm" x="16" y="654" width="44" height="26" rx="4" ry="4"/><text class="rr-label" x="38" y="667">val</text></a><path class="rr-line" d="M38 716V734"/><path class="rr-line" d="M38 725H85"/><path class="rr-line" d="M38 593H85"/><path class="rr-line" d="M85 672V725"/><path class="rr-line" d="M85 593V646"/><rect class="rr-term" x="70" y="646" width="30" height="26" rx="13" ry="13"/><text class="rr-label" x="85" y="659">,</text><circle class="rr-cap" cx="38" cy="734" r="3"/></g><g id="elem"><text class="rr-title" x="16" y="783">elem</text><circle class="rr-cap" cx="38" cy="794" r="3"/><path class="rr-line" d="M38 794V812"/><a href="#val"><rect class="rr-nonterm" x="16" y="812" width="44" height="26" rx="4" ry="4"/><text class="rr-label" x="38" y="825">val</text></a><path class="rr-line" d="M38 838V856"/><path class="rr-line" d="M38 847H85"/><path class="rr-line" d="M38 803H85"/><path class="rr-line" d="M85 838V847"/><path class="rr-line" d="M85 803V812"/><rect class="rr-term" x="70" y="812" width="30" height="26" rx="13" ry="13"/><text class="rr-label" x="85" y="825">,</text><circle class="rr-cap" cx="38" cy="856" r="3"/></g></g></svg>