<svg xmlns="http://www.w3.org/2000/svg" class="railroad" width="224" height="980" viewBox="0 0 224 980"><style>svg.railroad{background:#fff;font-family:monospace;font-size:13px}.rr-line{stroke:#334;stroke-width:2;fill:none}.rr-cap{fill:#334}.rr-term{fill:#e8f0ff;stroke:#334;stroke-width:2}.rr-nonterm{fill:#fff7e8;stroke:#334;stroke-width:2}.rr-label{fill:#111;text-anchor:middle;dominant-baseline:middle}.rr-comment{fill:#666;font-style:italic;text-anchor:middle;dominant-baseline:middle}.rr-title{fill:#113;font-weight:bold;font-size:15px}a:hover .rr-nonterm{fill:#ffe6b3;cursor:pointer}</style><g><g id="val"><text class="rr-title" x="16" y="31">val</text><circle class="rr-cap" cx="112" cy="42" r="3"/><path class="rr-line" d="M112 42V60"/><path class="rr-line" d="M38 60H186"/><path class="rr-line" d="M38 122H186"/><path class="rr-line" d="M112 122V140"/><path class="rr-line" d="M38 60V78"/><a href="#map"><rect class="rr-nonterm" x="16" y="78" width="44" height="26" rx="4" ry="4"/><text class="rr-label" x="38" y="91">map</text></a><path class="rr-line" d="M38 104V122"/><path class="rr-line" d="M112 60V78"/><a href="#list"><rect class="rr-nonterm" x="86" y="78" width="52" height="26" rx="4" ry="4"/><text class="rr-label" x="112" y="91">list</text></a><path class="rr-line" d="M112 104V122"/><path class="rr-line" d="M186 60V78"/><rect class="rr-term" x="164" y="78" width="44" height="26" rx="13" ry="13"/><text class="rr-label" x="186" y="91">VAL</text><path class="rr-line" d="M186 104V122"/><circle class="rr-cap" cx="112" cy="140" r="3"/></g><g id="map"><text class="rr-title" x="16" y="189">map</text><circle class="rr-cap" cx="64" cy="200" r="3"/><rect class="rr-term" x="49" y="200" width="30" height="26" rx="13" ry="13"/><text class="rr-label" x="64" y="213">{</text><path class="rr-line" d="M64 226V244"/><path class="rr-line" d="M64 244V262"/><path class="rr-line" d="M42 262H86"/><path class="rr-line" d="M42 324H86"/><path class="rr-line" d="M64 324V342"/><path class="rr-line" d="M42 262V280"/><a href="#pair"><rect class="rr-nonterm" x="16" y="280" width="52" height="26" rx="4" ry="4"/><text class="rr-label" x="42" y="293">pair</text></a><path class="rr-line" d="M42 306V324"/><path class="rr-line" d="M86 262V280"/><path class="rr-line" d="M86 280V292"/><path class="rr-line" d="M86 292V324"/><path class="rr-line" d="M64 342V360"/><rect class="rr-term" x="49" y="360" width="30" height="26" rx="13" ry="13"/><text class="rr-label" x="64" y="373">}</text><circle class="rr-cap" cx="64" cy="386" r="3"/></g><g id="list"><text class="rr-title" x="16" y="435">list</text><circle class="rr-cap" cx="64" cy="446" r="3"/><rect class="rr-term" x="49" y="446" width="30" height="26" rx="13" ry="13"/><text class="rr-label" x="64" y="459">[</text><path class="rr-line" d="M64 472V490"/><path class="rr-line" d="M64 490V508"/><path class="rr-line" d="M42 508H86"/><path class="rr-line" d="M42 570H86"/><path class="rr-line" d="M64 570V588"/><path class="rr-line" d="M42 508V526"/><a href="#elem"><rect class="rr-nonterm" x="16" y="526" width="52" height="26" rx="4" ry="4"/><text class="rr-label" x="42" y="539">elem</text></a><path class="rr-line" d="M42 552V570"/><path class="rr-line" d="M86 508V526"/><path class="rr-line" d="M86 526V538"/><path class="rr-line" d="M86 538V570"/><path class="rr-line" d="M64 588V606"/><rect class="rr-term" x="49" y="606" width="30" height="26" rx="13" ry="13"/><text class="rr-label" x="64" y="619">]</text><circle class="rr-cap" cx="64" cy="632" r="3"/></g><g id="pair"><text class="rr-title" x="16" y="681">pair</text><circle class="rr-cap" cx="38" cy="692" r="3"/><path class="rr-line" d="M38 692V710"/><rect class="rr-term" x="16" y="710" width="44" height="26" rx="13" ry="13"/><text class="rr-label" x="38" y="723">KEY</text><path class="rr-line" d="M38 736V754"/><rect class="rr-term" x="23" y="754" width="30" height="26" rx="13" ry="13"/><text class="rr-label" x="38" y="767">:</text><path class="rr-line" d="M38 780V798"/><a href="#val"><rect class="rr-nonterm" x="16" y="798" width="44" height="26" rx="4" ry="4"/><text class="rr-label" x="38" y="811">val</text></a><path class="rr-line" d="M38 824V842"/><path class="rr-line" d="M38 833H85"/><path class="rr-line" d="M38 701H85"/><path class="rr-line" d="M85 780V833"/><path class="rr-line" d="M85 701V754"/><rect class="rr-term" x="70" y="754" width="30" height="26" rx="13" ry="13"/><text class="rr-label" x="85" y="767">,</text><circle class="rr-cap" cx="38" cy="842" r="3"/></g><g id="elem"><text class="rr-title" x="16" y="891">elem</text><circle class="rr-cap" cx="38" cy="902" r="3"/><path class="rr-line" d="M38 902V920"/><a href="#val"><rect class="rr-nonterm" x="16" y="920" width="44" height="26" rx="4" ry="4"/><text class="rr-label" x="38" y="933">val</text></a><path class="rr-line" d="M38 946V964"/><path class="rr-line" d="M38 955H85"/><path class="rr-line" d="M38 911H85"/><path class="rr-line" d="M85 946V955"/><path class="rr-line" d="M85 911V920"/><rect class="rr-term" x="70" y="920" width="30" height="26" rx="13" ry="13"/><text class="rr-label" x="85" y="933">,</text><circle class="rr-cap" cx="38" cy="964" r="3"/></g></g></svg>